<?xml version="1.0" encoding="utf-8"?>
<svg id="master-artboard" viewBox="0 0 564.9287109375 312.93121337890625" version="1.1" xmlns="http://www.w3.org/2000/svg" x="0px" y="0px" width="564.9287109375px" height="312.93121337890625px" enable-background="new 0 0 1400 980"><defs><linearGradient id="gradient-0" gradientUnits="userSpaceOnUse" x1="700" y1="0" x2="700" y2="980">
                <stop offset="0" style="stop-color: #e8ffdb"/>
                <stop offset="1" style="stop-color: #a7ff75"/>
              </linearGradient><radialGradient id="gradient-1" gradientUnits="objectBoundingBox" cx="0.5" cy="0.5" r="0.5">
                <stop offset="0" style="stop-color: #ffffff"/>
                <stop offset="1" style="stop-color: #cccccc"/>
              </radialGradient></defs><rect id="ee-background" x="0" y="0" width="564.9287109375" height="312.93121337890625" style="fill: rgb(232, 255, 219); fill-opacity: 1; pointer-events: none;"/>
<path fill="#231F20" d="M1002.2,419.3H442.7c-1.4,0-2.5-1.1-2.5-2.5v-307c0-1.4,1.1-2.5,2.5-2.5h559.5c1.4,0,2.5,1.1,2.5,2.5v307&#10;&#9;&#9;&#9;C1004.8,418.2,1003.6,419.3,1002.2,419.3z M445.3,414.3h554.4V112.3H445.3V414.3z" transform="matrix(1, 0, 0, 1, -439.771240234375, -107.06040954589844)"/><path d="M 477.299988 139.800003 H 625.099991 V 292.699997 H 477.299988 V 139.800003 Z" fill="#FFEDBD" transform="matrix(0.7808011770248413, 0, 0, 0.7808011770248413, -320.595947265625, -76.0963134765625)" style="fill: rgb(255, 152, 0);"/><path d="M625.1,295.2H477.3c-1.4,0-2.5-1.1-2.5-2.5V139.8c0-1.4,1.1-2.5,2.5-2.5h147.8c1.4,0,2.5,1.1,2.5,2.5v152.9&#10;&#9;&#9;&#9;C627.6,294,626.5,295.2,625.1,295.2z M479.8,290.1h142.7V142.3H479.8V290.1z" transform="matrix(0.8113263845443726, 0, 0, 0.8113263845443726, -337.42144775390625, -82.80260467529297)"/><path d="M 678.200012 160.300003 H 953.5 V 194.800003 H 678.200012 V 160.300003 Z" fill="#A992B5" transform="matrix(0.5115801692008972, 0, 0, 0.5115801692008972, -160.98611450195312, -47.786495208740234)" style="fill: rgb(103, 58, 183);"/><path fill="#231F20" d="M953.5,197.3H678.2c-1.4,0-2.5-1.1-2.5-2.5v-34.5c0-1.4,1.1-2.5,2.5-2.5h275.3c1.4,0,2.5,1.1,2.5,2.5v34.5&#10;&#9;&#9;&#9;C956.1,196.2,954.9,197.3,953.5,197.3z M680.7,192.3H951v-29.4H680.7V192.3z" transform="matrix(0.5230915546417236, 0, 0, 0.5230915546417236, -170.76708984375, -51.39383316040039)"/><path fill="#FFFFFF" d="M759.6,340.5c-0.8-1.1-0.6-2.5,0.3-3.2c2.2-1.6,4.4-3.2,6.6-4.8c1-0.7,1.2-2.1,0.5-3.1&#10;&#9;&#9;&#9;c-3-4.3-5.8-8.9-8.3-13.6c-0.6-1.1-1.9-1.5-3-1c-5.3,2.7-10.7,5.4-16,8.2c-1.1,0.5-1.4,2-0.7,3.3c6.7,12.6,15.1,24.1,24.9,34.2&#10;&#9;&#9;&#9;c1,1,2.6,2.7,3.7,3.7c10.1,9.8,21.6,18.2,34.2,24.9c1.3,0.7,2.8,0.3,3.3-0.7c2.7-5.3,5.4-10.7,8.2-16c0.5-1.1,0.1-2.4-1-3&#10;&#9;&#9;&#9;c-4.7-2.5-9.2-5.3-13.6-8.3c-1-0.7-2.4-0.5-3.1,0.5c-1.6,2.2-3.2,4.4-4.8,6.6c-0.7,1-2.2,1.1-3.2,0.3c-4.6-3.5-9-7.3-13.2-11.3&#10;&#9;&#9;&#9;c-1-0.9-2.5-2.5-3.4-3.4C766.9,349.5,763.1,345.1,759.6,340.5z" transform="matrix(1.276486873626709, 0, 0, 1.276486873626709, -578.1075439453125, -194.03960418701172)"/><path d="M803.1,391.9c-0.9,0-1.8-0.2-2.6-0.7c-12.7-6.7-24.4-15.3-34.8-25.3c-1-1-2.7-2.7-3.7-3.7c-10-10.4-18.5-22.1-25.3-34.8&#10;&#9;&#9;&#9;c-0.7-1.3-0.8-2.8-0.4-4.1c0.4-1.2,1.2-2.1,2.2-2.7l16-8.2c2.3-1.2,5.2-0.2,6.4,2.1c2.5,4.6,5.2,9.1,8.2,13.3c1.5,2.1,1,5.1-1,6.6&#10;&#9;&#9;&#9;l-6.6,4.8c3.7,4.2,7.4,8.6,11.3,12.6c0.9,0.9,2.4,2.5,3.4,3.4c4.1,3.9,8.4,7.7,13,11.1l4.5-6.4c1.5-2,4.5-2.5,6.6-1.1&#10;&#9;&#9;&#9;c4.2,3,8.7,5.7,13.3,8.2c2.3,1.2,3.2,4.1,2.1,6.3l-8.2,16C806.5,391,804.9,391.9,803.1,391.9z M756.5,317l-15.6,8.2&#10;&#9;&#9;&#9;c6.9,12.2,15.1,23.5,24.8,33.5c1,1,2.6,2.6,3.6,3.6c10,9.7,21.3,17.9,33.6,24.4l0.2,0.1v2.5l0-2.5l7.8-15.7&#10;&#9;&#9;&#9;c-4.7-2.1-9.4-5-13.7-8.1l-0.6,1.3l-3.8,5.2c-1.5,2-4.7,2.4-6.8,0.8c-4.7-3.5-9.2-7.4-13.4-11.5c-1-0.9-2.5-2.5-3.5-3.5&#10;&#9;&#9;&#9;c-4-4.2-7.9-8.7-11.5-13.4c-0.8-1.1-1.2-2.5-1-3.8c0.2-1.2,0.8-2.3,1.8-3l6.6-4.8C761.9,326.5,759,321.8,756.5,317z" transform="matrix(1.2631876468658447, 0, 0, 1.2631876468658447, -569.258544921875, -190.79285430908203)"/><path d="M 551.2000122070312 346.3999938964844 L 519.9000244140625 313.8999938964844 L 488.70001220703125 346.3999938964844 L 498.1000061035156 346.3999938964844 L 498.1000061035156 390 L 541.7999877929688 390 L 541.7999877929688 346.3999938964844 Z" fill="#FFFFFF" transform="matrix(1.4761571884155273, 0, 0, 1.4761571884155273, -686.3516845703125, -281.70272064208984)" style="fill: rgb(255, 107, 117);"/><path d="M541.8,392.6h-43.8c-1.4,0-2.5-1.1-2.5-2.5v-41.1h-6.8c-1,0-1.9-0.6-2.3-1.5c-0.4-0.9-0.2-2,0.5-2.8l31.3-32.5&#10;&#9;&#9;&#9;c1-1,2.7-1,3.7,0l31.3,32.5c0.7,0.7,0.9,1.8,0.5,2.8c-0.4,0.9-1.3,1.5-2.3,1.5h-6.8V390C544.4,391.4,543.2,392.6,541.8,392.6z&#10;&#9;&#9;&#9; M500.6,387.5h38.7v-41.1c0-1.4,1.1-2.5,2.5-2.5h3.4l-25.3-26.3l-25.3,26.3h3.4c1.4,0,2.5,1.1,2.5,2.5V387.5z" transform="matrix(1.4639239311218262, 0, 0, 1.4639239311218262, -677.329345703125, -273.90254974365234)"/><path fill="#FFFFFF" d="M601.4,292.6v-50c0-10.6-8.2-19.3-18.3-19.3h-63.9c-10,0-18.3,8.7-18.3,19.3v50H601.4z" transform="matrix(0.5969757437705994, 0, 0, 0.5969757437705994, -218.7411346435547, -37.33195114135742)"/><path d="M601.4,295.2H501c-1.4,0-2.5-1.1-2.5-2.5v-50c0-12,9.3-21.8,20.8-21.8h63.9c11.5,0,20.8,9.8,20.8,21.8v50&#10;&#9;&#9;&#9;C603.9,294,602.8,295.2,601.4,295.2z M503.5,290.1h95.3v-47.5c0-9.2-7.1-16.7-15.7-16.7h-63.9c-8.7,0-15.7,7.5-15.7,16.7V290.1z" transform="matrix(0.5828020572662354, 0, 0, 0.5828020572662354, -211.43797302246094, -34.69846725463867)"/><path fill="#FFFFFF" d="M572,193.6c0,11.5-9.3,20.8-20.8,20.8l0,0c-11.5,0-20.8-9.3-20.8-20.8v-12.5c0-11.5,9.3-20.8,20.8-20.8&#10;&#9;&#9;&#9;l0,0c11.5,0,20.8,9.3,20.8,20.8V193.6z" transform="matrix(0.6902449131011963, 0, 0, 0.6902449131011963, -270.68133544921875, -59.05375289916992)"/><path d="M551.2,217c-12.9,0-23.4-10.5-23.4-23.4v-12.5c0-12.9,10.5-23.4,23.4-23.4c12.9,0,23.4,10.5,23.4,23.4v12.5&#10;&#9;&#9;&#9;C574.6,206.5,564.1,217,551.2,217z M551.2,162.8c-10.1,0-18.3,8.2-18.3,18.3v12.5c0,10.1,8.2,18.3,18.3,18.3&#10;&#9;&#9;&#9;c10.1,0,18.3-8.2,18.3-18.3v-12.5C569.5,171,561.3,162.8,551.2,162.8z" transform="matrix(0.6860077977180481, 0, 0, 0.6860077977180481, -268.345947265625, -59.19095230102539)"/><path d="M 524 292.700012 L 524 262.399994" fill="#FFFFFF" transform="matrix(1, 0, 0, 1, -441.4183349609375, -108.7074966430664)"/><path d="M 578.400024 292.700012 L 578.400024 262.399994" fill="#FFFFFF" transform="matrix(1, 0, 0, 1, -441.4183349609375, -108.7074966430664)"/><path d="M 551.200012 236 L 551.200012 280" fill="#FFFFFF" transform="matrix(1, 0, 0, 1, -441.4183349609375, -108.7074966430664)"/><path d="M530,391.9h-20.2c-1.4,0-2.5-1.1-2.5-2.5v-17.4c0-1.4,1.1-2.5,2.5-2.5H530c1.4,0,2.5,1.1,2.5,2.5v17.4&#10;&#9;&#9;&#9;C532.6,390.8,531.4,391.9,530,391.9z M512.4,386.9h15.1v-12.4h-15.1V386.9z" transform="matrix(1, 0, 0, 1, -449.8889465332031, -142.5899429321289)"/><g transform="matrix(0.6402055621147156, 0, 0, 0.6402055621147156, -514.6072387695312, 21.130916595458984)">
			<path d="M1199.3,354.7c-0.6,0-1.1-0.2-1.6-0.6l-122.7-98.6c-0.8-0.7-1.2-1.8-0.8-2.8c0.4-1,1.3-1.7,2.4-1.7H1322&#10;&#9;&#9;&#9;&#9;c1.1,0,2,0.7,2.4,1.7c0.4,1,0,2.1-0.8,2.8l-122.7,98.6C1200.5,354.5,1199.9,354.7,1199.3,354.7z M1083.9,256.2l115.4,92.8&#10;&#9;&#9;&#9;&#9;l115.5-92.8H1083.9z"/>
		</g><path d="M 1199.300048828125 352.20001220703125 L 1076.699951171875 253.60000610351562 L 1076.699951171875 416.5 L 1322 416.5 L 1322 253.60000610351562 Z" fill="#FFEDBD" transform="matrix(0.623984158039093, 0, 0, 0.623984158039093, -496.098388671875, 29.474285125732422)"/><path d="M1322,419h-245.3c-1.4,0-2.5-1.1-2.5-2.5V253.6c0-1,0.6-1.9,1.4-2.3c0.9-0.4,1.9-0.3,2.7,0.3l121.1,97.3l121.1-97.3&#10;&#9;&#9;&#9;&#9;c0.8-0.6,1.8-0.7,2.7-0.3c0.9,0.4,1.4,1.3,1.4,2.3v162.9C1324.5,417.9,1323.4,419,1322,419z M1079.2,413.9h240.2v-155&#10;&#9;&#9;&#9;&#9;l-118.5,95.3c-0.9,0.7-2.3,0.7-3.2,0l-118.5-95.3V413.9z" transform="matrix(0.644798219203949, 0, 0, 0.644798219203949, -521.0438842773438, 19.99947738647461)"/><path d="M1237,382h-75.3c-1.4,0-2.5-1.1-2.5-2.5s1.1-2.5,2.5-2.5h75.3c1.4,0,2.5,1.1,2.5,2.5S1238.4,382,1237,382z" transform="matrix(1, 0, 0, 1, -947.0729370117188, -113.64875030517578)"/><path d="M379.2,621.7c-1.4,0-2.5-1.1-2.5-2.5v-34.7c0-20.1-16.3-36.4-36.4-36.4H230.6c-20.1,0-36.4,16.3-36.4,36.4v34.7&#10;&#9;&#9;&#9;c0,1.4-1.1,2.5-2.5,2.5c-1.4,0-2.5-1.1-2.5-2.5v-34.7c0-22.9,18.6-41.5,41.5-41.5h109.6c22.9,0,41.5,18.6,41.5,41.5v34.7&#10;&#9;&#9;&#9;C381.7,620.6,380.6,621.7,379.2,621.7z" transform="matrix(0.4359546899795532, 0, 0, 0.4359546899795532, 320.4393005371094, -206.36783599853516)"/><path d="M 376.70001220703125 801.2999877929688 L 285.5 801.2999877929688 L 194.1999969482422 801.2999877929688 L 190.60000610351562 801.2999877929688 L 94.0999984741211 717.2000122070312 L 94.0999984741211 744.5 L 94.0999984741211 904.4000244140625 L 476.79998779296875 904.4000244140625 L 476.79998779296875 744.5 L 476.79998779296875 717.2000122070312 L 380.29998779296875 801.2999877929688 Z" fill="#D1D3D4" transform="matrix(0.4419860243797302, 0, 0, 0.4419860243797302, 318.6374206542969, -207.94474029541016)"/><path fill="#231F20" d="M476.8,906.9H94.1c-1.4,0-2.5-1.1-2.5-2.5V717.2c0-1,0.6-1.9,1.5-2.3c0.9-0.4,2-0.3,2.7,0.4l95.8,83.5&#10;&#9;&#9;&#9;h187.7l95.8-83.5c0.8-0.7,1.8-0.8,2.7-0.4c0.9,0.4,1.5,1.3,1.5,2.3v187.2C479.4,905.8,478.2,906.9,476.8,906.9z M96.6,901.9h377.6&#10;&#9;&#9;&#9;V722.7L382,803.2c-0.5,0.4-1.1,0.6-1.7,0.6H190.6c-0.6,0-1.2-0.2-1.7-0.6l-92.3-80.5V901.9z" transform="matrix(0.4504721760749817, 0, 0, 0.4504721760749817, 317.8520812988281, -215.07982635498047)"/><path d="M 79 619.2000122070312 L 79 708.2999877929688 L 94.0999984741211 717.2000122070312 L 190.60000610351562 801.2999877929688 L 194.1999969482422 801.2999877929688 L 285.5 801.2999877929688 L 376.70001220703125 801.2999877929688 L 380.29998779296875 801.2999877929688 L 476.79998779296875 717.2000122070312 L 491.8999938964844 708.2999877929688 L 491.8999938964844 619.2000122070312 Z" fill="#F1F2F2" transform="matrix(0.4361565411090851, 0, 0, 0.4361565411090851, 321.9247741699219, -203.78087615966797)"/><path fill="#231F20" d="M380.3,803.8H190.6c-0.6,0-1.2-0.2-1.7-0.6l-96.5-84.1l-14.7-8.6c-0.8-0.5-1.2-1.3-1.2-2.2v-89.1&#10;&#9;&#9;&#9;c0-1.4,1.1-2.5,2.5-2.5h412.9c1.4,0,2.5,1.1,2.5,2.5v89.1c0,0.9-0.5,1.7-1.2,2.2l-15.1,8.9L382,803.2&#10;&#9;&#9;&#9;C381.5,803.6,380.9,803.8,380.3,803.8z M191.6,798.8h187.7l95.8-83.5l14.2-8.4v-85.1H81.6v85.1l13.8,8.1L191.6,798.8z" transform="matrix(0.44215235114097595, 0, 0, 0.44215235114097595, 320.0564880371094, -208.03128814697266)"/><path d="M 359.899994 728.099976 H 398.499992 V 828.399979 H 359.899994 V 728.099976 Z" fill="#FFDF94" transform="matrix(0.42289847135543823, 0, 0, 0.42289847135543823, 312.8368225097656, -182.69525909423828)"/><path fill="#231F20" d="M398.5,831h-38.6c-1.4,0-2.5-1.1-2.5-2.5V728.1c0-1.4,1.1-2.5,2.5-2.5h38.6c1.4,0,2.5,1.1,2.5,2.5v100.3&#10;&#9;&#9;&#9;C401,829.8,399.9,831,398.5,831z M362.5,825.9h33.5v-95.3h-33.5V825.9z" transform="matrix(0.4687560200691223, 0, 0, 0.4687560200691223, 294.1093444824219, -216.38953399658203)"/><path d="M344.5,693.6H226.4c-1.4,0-2.5-1.1-2.5-2.5c0-1.4,1.1-2.5,2.5-2.5h118.1c1.4,0,2.5,1.1,2.5,2.5&#10;&#9;&#9;&#9;C347.1,692.4,345.9,693.6,344.5,693.6z" transform="matrix(1, 0, 0, 1, 161.37484741210938, -605.7573471069336)"/><path d="M320,859.8h-69.1c-1.4,0-2.5-1.1-2.5-2.5s1.1-2.5,2.5-2.5H320c1.4,0,2.5,1.1,2.5,2.5S321.4,859.8,320,859.8z" transform="matrix(1, 0, 0, 1, 156.99374389648438, -671.8542709350586)"/><path d="M 959.599976 708.400024 H 979.799976 V 725.800024 H 959.599976 V 708.400024 Z" fill="#FFFFFF" transform="matrix(1, 0, 0, 1, -899.3074951171875, -479.30126190185547)"/>
<path d="M 678.200012 236.399994 H 953.5 V 270.899994 H 678.200012 V 236.399994 Z" fill="#A992B5" transform="matrix(0.5087403059005737, 0, 0, 0.5087403059005737, -157.49667358398438, -53.67576599121094)" style="fill: rgb(103, 58, 183);"/><path fill="#231F20" d="M953.5,273.4H678.2c-1.4,0-2.5-1.1-2.5-2.5v-34.5c0-1.4,1.1-2.5,2.5-2.5h275.3c1.4,0,2.5,1.1,2.5,2.5v34.5&#10;&#9;&#9;&#9;C956.1,272.3,954.9,273.4,953.5,273.4z M680.7,268.3H951v-29.4H680.7V268.3z" transform="matrix(0.5342469215393066, 0, 0, 0.5342469215393066, -178.30508422851562, -59.36381912231445)"/><path d="M 570.4368286132812 238.74244689941406" style="fill: rgb(0, 0, 0); fill-opacity: 1; stroke: rgb(0, 0, 0); stroke-opacity: 1; stroke-width: 0; paint-order: fill;" transform="matrix(1.015376091003418, 0, 0, 1.015376091003418, -449.8943786621094, -126.47286224365234)"/><path d="M 678.200012 236.399994 H 953.5 V 270.899994 H 678.200012 V 236.399994 Z" fill="#A992B5" transform="matrix(0.5087403059005737, 0, 0, 0.5087403059005737, -158.83941650390625, -16.658565521240234)" style="fill: rgb(103, 58, 183);"/><path fill="#231F20" d="M953.5,197.3H678.2c-1.4,0-2.5-1.1-2.5-2.5v-34.5c0-1.4,1.1-2.5,2.5-2.5h275.3c1.4,0,2.5,1.1,2.5,2.5v34.5&#10;&#9;&#9;&#9;C956.1,196.2,954.9,197.3,953.5,197.3z M680.7,192.3H951v-29.4H680.7V192.3z" transform="matrix(0.5230915546417236, 0, 0, 0.5230915546417236, -170.57403564453125, 21.853755950927734)"/><path d="M 359.899994 728.099976 H 398.499992 V 828.399979 H 359.899994 V 728.099976 Z" fill="#FFDF94" transform="matrix(0.42289847135543823, 0, 0, 0.42289847135543823, 262.9300231933594, -179.8296890258789)"/><path fill="#231F20" d="M398.5,831h-38.6c-1.4,0-2.5-1.1-2.5-2.5V728.1c0-1.4,1.1-2.5,2.5-2.5h38.6c1.4,0,2.5,1.1,2.5,2.5v100.3&#10;&#9;&#9;&#9;C401,829.8,399.9,831,398.5,831z M362.5,825.9h33.5v-95.3h-33.5V825.9z" transform="matrix(0.4687560200691223, 0, 0, 0.4687560200691223, 247.47811889648438, -214.94446563720703)"/></svg>